<svg width="210" height="34" viewBox="0 0 210 34" fill="none" xmlns="http://www.w3.org/2000/svg">
<path d="M6.62354 30.9673C6.40381 31.4067 6.14014 31.7949 5.83252 32.1318C5.5249 32.4688 5.19531 32.7471 4.84375 32.9668C4.49219 33.1865 4.1333 33.3477 3.76709 33.4502C3.40088 33.5674 3.05664 33.626 2.73438 33.626C2.26562 33.626 1.87012 33.5015 1.54785 33.2524C1.22559 33.0181 1.06445 32.6665 1.06445 32.1978C1.06445 32.0366 1.0791 31.8608 1.1084 31.6704C1.15234 31.4653 1.23291 31.2456 1.3501 31.0112C2.46338 28.7114 3.56934 26.4995 4.66797 24.3755C5.78125 22.2515 6.85059 20.2666 7.87598 18.4209C8.91602 16.5752 9.89746 14.8979 10.8203 13.3892C11.7432 11.8657 12.5781 10.5693 13.3252 9.5C14.0869 8.41602 14.7314 7.58105 15.2588 6.99512C15.8008 6.40918 16.1963 6.11621 16.4453 6.11621C16.958 6.11621 17.3389 6.2627 17.5879 6.55566C17.8369 6.84863 17.9614 7.19287 17.9614 7.58838C17.9614 7.91064 17.8809 8.23291 17.7197 8.55518C17.3535 9.30225 16.936 10.1519 16.4673 11.104C16.0132 12.0415 15.5298 13.0449 15.0171 14.1143C14.5044 15.1689 13.9697 16.2676 13.4131 17.4102C12.8564 18.5381 12.3071 19.666 11.7651 20.7939C11.2231 21.9072 10.6885 22.9912 10.1611 24.0459C9.64844 25.0859 9.16504 26.0527 8.71094 26.9463C8.27148 27.8398 7.86865 28.6382 7.50244 29.3413C7.15088 30.0298 6.85791 30.5718 6.62354 30.9673ZM32.3096 5.25928C32.3096 5.52295 32.207 5.89648 32.002 6.37988C31.8115 6.84863 31.5332 7.31006 31.167 7.76416C30.8154 8.21826 30.3833 8.61377 29.8706 8.95068C29.3726 9.2876 28.8159 9.45605 28.2007 9.45605C28.0542 9.45605 27.8711 9.44873 27.6514 9.43408C27.4316 9.40479 27.2119 9.34619 26.9922 9.2583C26.7871 9.17041 26.6113 9.0459 26.4648 8.88477C26.3184 8.72363 26.2451 8.51123 26.2451 8.24756C26.2451 8.11572 26.311 7.93262 26.4429 7.69824C26.5747 7.44922 26.7139 7.18555 26.8604 6.90723C27.0215 6.62891 27.168 6.35791 27.2998 6.09424C27.4316 5.83057 27.4976 5.61084 27.4976 5.43506C27.4976 4.93701 27.146 4.57812 26.4429 4.3584C25.7397 4.12402 24.5605 4.00684 22.9053 4.00684C21.25 4.06543 19.7559 4.16797 18.4229 4.31445C17.0898 4.44629 15.8594 4.62207 14.7314 4.8418C13.6035 5.04688 12.5488 5.28857 11.5674 5.56689C10.5859 5.84521 9.61914 6.14551 8.66699 6.46777C7.71484 6.77539 6.74805 7.1123 5.7666 7.47852C4.7998 7.83008 3.76709 8.18896 2.66846 8.55518C2.56592 8.58447 2.46338 8.61377 2.36084 8.64307C2.27295 8.67236 2.19238 8.68701 2.11914 8.68701C1.88477 8.68701 1.67236 8.63574 1.48193 8.5332C1.2915 8.43066 1.12305 8.2915 0.976562 8.11572C0.844727 7.93994 0.734863 7.74219 0.646973 7.52246C0.57373 7.30273 0.537109 7.07568 0.537109 6.84131C0.537109 6.46045 0.844727 6.03564 1.45996 5.56689C2.0752 5.0835 2.91748 4.6001 3.98682 4.1167C5.05615 3.6333 6.31592 3.16455 7.76611 2.71045C9.21631 2.2417 10.7764 1.83154 12.4463 1.47998C14.1309 1.11377 15.8813 0.828125 17.6978 0.623047C19.5288 0.40332 21.3525 0.293457 23.1689 0.293457C24.7363 0.293457 26.0913 0.417969 27.2339 0.666992C28.3765 0.916016 29.3213 1.26025 30.0684 1.69971C30.8154 2.13916 31.3721 2.6665 31.7383 3.28174C32.1045 3.88232 32.2949 4.5415 32.3096 5.25928ZM22.0264 12.9937C22.0264 12.6567 22.085 12.3125 22.2021 11.9609C22.334 11.5947 22.5244 11.2651 22.7734 10.9722C23.0225 10.6792 23.3301 10.4375 23.6963 10.2471C24.0771 10.0566 24.5239 9.96143 25.0366 9.96143C25.8862 9.96143 26.4795 10.1299 26.8164 10.4668C27.1533 10.7891 27.3218 11.1992 27.3218 11.6973C27.3218 11.9756 27.2632 12.2832 27.146 12.6201C27.0435 12.957 26.8823 13.272 26.6626 13.5649C26.4429 13.8433 26.1572 14.0776 25.8057 14.2681C25.4541 14.4585 25.0366 14.5537 24.5532 14.5537C23.645 14.5537 23.0078 14.4146 22.6416 14.1362C22.2754 13.8433 22.0703 13.4624 22.0264 12.9937ZM19.6094 17.9375C19.8584 17.5273 20.144 17.2344 20.4663 17.0586C20.7886 16.8828 21.1182 16.7949 21.4551 16.7949C22.0117 16.7949 22.4878 16.978 22.8833 17.3442C23.2935 17.6958 23.4985 18.1499 23.4985 18.7065C23.4839 18.8384 23.4619 18.9702 23.4326 19.1021C23.418 19.2339 23.374 19.3657 23.3008 19.4976C23.0957 19.8784 22.9272 20.2007 22.7954 20.4644C22.6636 20.728 22.5391 20.9771 22.4219 21.2114C22.3193 21.4312 22.2168 21.6509 22.1143 21.8706C22.0117 22.0903 21.8872 22.354 21.7407 22.6616C21.5649 23.0278 21.3672 23.4307 21.1475 23.8701C20.9277 24.2949 20.7153 24.7344 20.5103 25.1885C20.3198 25.6426 20.1514 26.0894 20.0049 26.5288C19.873 26.9683 19.8071 27.3711 19.8071 27.7373C19.8071 28.1328 19.9023 28.3965 20.0928 28.5283C20.2979 28.6455 20.5835 28.7041 20.9497 28.7041C21.3599 28.7041 21.7847 28.6162 22.2241 28.4404C22.6782 28.2646 23.1323 28.0376 23.5864 27.7593C24.0405 27.481 24.4873 27.166 24.9268 26.8145C25.3662 26.4482 25.7764 26.082 26.1572 25.7158C26.5527 25.3496 26.9116 24.998 27.2339 24.6611C27.5708 24.3242 27.8491 24.0239 28.0688 23.7603C28.3618 23.4819 28.6548 23.3428 28.9478 23.3428C29.2114 23.3428 29.4238 23.46 29.585 23.6943C29.7607 23.9287 29.8486 24.229 29.8486 24.5952C29.8486 24.9321 29.7607 25.291 29.585 25.6719C29.4238 26.0527 29.1528 26.4116 28.772 26.7485C28.0249 27.5103 27.2632 28.2427 26.4868 28.9458C25.7104 29.6343 24.9121 30.2495 24.0918 30.7915C23.2861 31.3188 22.4731 31.7437 21.6528 32.0659C20.8325 32.3882 20.0049 32.5493 19.1699 32.5493C17.9834 32.5493 17.0459 32.249 16.3574 31.6484C15.6836 31.0332 15.3467 30.0811 15.3467 28.792C15.3467 28.1182 15.4419 27.459 15.6323 26.8145C15.8228 26.1699 16.0498 25.5474 16.3135 24.9468C16.5771 24.3315 16.8555 23.7456 17.1484 23.189C17.4414 22.6177 17.6904 22.0757 17.8955 21.563C17.9688 21.3726 18.0933 21.0796 18.269 20.6841C18.4595 20.2886 18.6572 19.8857 18.8623 19.4756C19.0967 18.9922 19.3457 18.4795 19.6094 17.9375ZM39.6704 18.0474C39.6704 18.5015 39.6191 19.0068 39.5166 19.5635C39.4141 20.1055 39.2456 20.6182 39.0112 21.1016C38.7769 21.585 38.4766 21.9878 38.1104 22.3101C37.7441 22.6323 37.29 22.7935 36.748 22.7935C36.4551 22.7935 36.2646 22.7495 36.1768 22.6616C36.1035 22.5737 36.0669 22.4199 36.0669 22.2002C36.0669 22.0684 36.0669 21.8779 36.0669 21.6289C36.0815 21.3652 36.0889 21.1162 36.0889 20.8818C36.0889 20.6182 36.0522 20.3984 35.979 20.2227C35.9058 20.0322 35.7227 19.937 35.4297 19.937C35.0928 19.937 34.7119 20.0688 34.2871 20.3325C33.877 20.5815 33.4595 20.9111 33.0347 21.3213C32.6245 21.7314 32.2217 22.2002 31.8262 22.7275C31.4307 23.2402 31.0718 23.7676 30.7495 24.3096C30.4419 24.8369 30.1929 25.3496 30.0024 25.8477C29.8267 26.3457 29.7388 26.7705 29.7388 27.1221C29.7388 27.6348 29.9146 28.0376 30.2661 28.3306C30.6323 28.6235 31.123 28.77 31.7383 28.77C32.3975 28.77 33.1006 28.6602 33.8477 28.4404C34.5947 28.2207 35.3345 27.9424 36.0669 27.6055C36.814 27.2686 37.5317 26.9023 38.2202 26.5068C38.9087 26.1113 39.5312 25.7378 40.0879 25.3862C40.6592 25.02 41.1353 24.7124 41.5161 24.4634C41.897 24.1997 42.146 24.0386 42.2632 23.98C42.4976 23.8628 42.7173 23.8042 42.9224 23.8042C43.0981 23.8042 43.2446 23.8481 43.3618 23.936C43.4937 24.0093 43.5962 24.1045 43.6694 24.2217C43.7427 24.3242 43.7939 24.4414 43.8232 24.5732C43.8525 24.6904 43.8672 24.793 43.8672 24.8809C43.8672 25.0127 43.8525 25.1738 43.8232 25.3643C43.7939 25.54 43.6841 25.7451 43.4937 25.9795C43.4204 26.0674 43.1787 26.2944 42.7686 26.6606C42.373 27.0122 41.853 27.4297 41.2085 27.9131C40.5786 28.3965 39.8462 28.9165 39.0112 29.4731C38.1909 30.0151 37.3047 30.5132 36.3525 30.9673C35.415 31.4214 34.4409 31.7949 33.4302 32.0879C32.4194 32.3955 31.4233 32.5493 30.4419 32.5493C29.6948 32.5493 29.0283 32.4321 28.4424 32.1978C27.8711 31.9634 27.3877 31.6484 26.9922 31.2529C26.5967 30.8428 26.2964 30.3667 26.0913 29.8247C25.8862 29.2827 25.7837 28.7114 25.7837 28.1108C25.7837 27.4517 25.9375 26.6973 26.2451 25.8477C26.5527 24.9834 26.9775 24.1045 27.5195 23.2109C28.0615 22.3174 28.6987 21.4385 29.4312 20.5742C30.1636 19.71 30.9546 18.9409 31.8042 18.2671C32.6685 17.5933 33.562 17.0513 34.4849 16.6411C35.4224 16.231 36.3672 16.0259 37.3193 16.0259C37.6416 16.0259 37.9419 16.0625 38.2202 16.1357C38.5132 16.209 38.7622 16.3262 38.9673 16.4873C39.187 16.6338 39.3555 16.8389 39.4727 17.1025C39.6045 17.3662 39.6704 17.6812 39.6704 18.0474ZM39.3628 28.5283C39.7144 27.7812 40.1172 26.9536 40.5713 26.0454C41.0254 25.1226 41.4795 24.2144 41.9336 23.3208C42.4023 22.4126 42.8418 21.5557 43.252 20.75C43.6621 19.9297 44.0063 19.2339 44.2847 18.6626L51.5356 4.40234C51.6235 4.21191 51.7554 4.02881 51.9312 3.85303C52.1216 3.67725 52.334 3.52344 52.5684 3.3916C52.8027 3.24512 53.0518 3.13525 53.3154 3.06201C53.5791 2.97412 53.8428 2.93018 54.1064 2.93018C54.751 2.93018 55.1978 3.05469 55.4468 3.30371C55.6958 3.53809 55.8203 3.83105 55.8203 4.18262C55.8203 4.50488 55.7397 4.84912 55.5786 5.21533C55.4175 5.56689 55.2344 5.89648 55.0293 6.2041C54.3848 7.30273 53.7622 8.41602 53.1616 9.54395C52.5757 10.6572 51.9824 11.7852 51.3818 12.9277C50.7959 14.0557 50.2026 15.1836 49.6021 16.3115C49.0015 17.4248 48.3716 18.5308 47.7124 19.6294C48.1226 19.2339 48.5547 18.8237 49.0088 18.3989C49.4775 17.9741 49.9829 17.5859 50.5249 17.2344C51.0669 16.8828 51.6602 16.5972 52.3047 16.3774C52.9492 16.1431 53.667 16.0259 54.458 16.0259C54.9268 16.0259 55.3735 16.0698 55.7983 16.1577C56.2231 16.2456 56.5967 16.3921 56.9189 16.5972C57.2412 16.7876 57.4976 17.0586 57.688 17.4102C57.8784 17.7471 57.9736 18.1646 57.9736 18.6626C57.9736 19.3218 57.8711 19.9297 57.666 20.4863C57.4756 21.0283 57.2266 21.5483 56.9189 22.0464C56.6113 22.5298 56.2744 22.9985 55.9082 23.4526C55.542 23.8921 55.1904 24.3462 54.8535 24.8149C54.5312 25.269 54.2456 25.7451 53.9966 26.2432C53.7622 26.7412 53.6157 27.2832 53.5571 27.8691C53.5571 27.8984 53.5498 27.9277 53.5352 27.957C53.5352 27.9863 53.5352 28.0156 53.5352 28.0449C53.5352 28.3379 53.6304 28.521 53.8208 28.5942C54.0259 28.6675 54.2822 28.7041 54.5898 28.7041C54.9854 28.7041 55.4102 28.6309 55.8643 28.4844C56.3184 28.3232 56.7725 28.1182 57.2266 27.8691C57.6953 27.6055 58.1567 27.3125 58.6108 26.9902C59.0796 26.668 59.519 26.3384 59.9292 26.0015C60.354 25.6646 60.7422 25.3423 61.0938 25.0347C61.4453 24.7124 61.7456 24.4341 61.9946 24.1997C62.1265 24.0825 62.2656 23.9946 62.4121 23.936C62.5586 23.8774 62.6978 23.8481 62.8296 23.8481C63.0933 23.8481 63.313 23.9507 63.4888 24.1558C63.6792 24.3462 63.7744 24.6099 63.7744 24.9468C63.7744 25.2544 63.6646 25.606 63.4448 26.0015C63.2397 26.397 62.8809 26.7925 62.3682 27.188C61.5625 27.8911 60.7422 28.5649 59.9072 29.2095C59.0723 29.854 58.23 30.4253 57.3804 30.9233C56.5308 31.4214 55.6812 31.8169 54.8315 32.1099C53.9966 32.4028 53.1763 32.5493 52.3706 32.5493C51.3306 32.5493 50.4956 32.3149 49.8657 31.8462C49.2358 31.3628 48.9209 30.6084 48.9209 29.583C48.9209 28.8359 49.0454 28.1328 49.2944 27.4736C49.5581 26.7998 49.873 26.1553 50.2393 25.54C50.6201 24.9102 51.0229 24.3096 51.4478 23.7383C51.8726 23.1523 52.2461 22.5811 52.5684 22.0244C52.7441 21.7754 52.876 21.5483 52.9639 21.3433C53.0664 21.1235 53.1177 20.8892 53.1177 20.6401C53.1177 20.4204 53.0591 20.2446 52.9419 20.1128C52.8247 19.9663 52.6416 19.8931 52.3926 19.8931C51.5283 19.8931 50.73 20.1055 49.9976 20.5303C49.2651 20.9551 48.5913 21.4971 47.9761 22.1562C47.3608 22.8154 46.7896 23.5405 46.2622 24.3315C45.7349 25.1079 45.2441 25.855 44.79 26.5728C44.585 26.895 44.3726 27.2686 44.1528 27.6934C43.9478 28.1035 43.728 28.5283 43.4937 28.9678C43.2739 29.4072 43.0396 29.8467 42.7905 30.2861C42.5415 30.7109 42.2778 31.0918 41.9995 31.4287C41.7358 31.7656 41.4502 32.0366 41.1426 32.2417C40.8496 32.4468 40.542 32.5493 40.2197 32.5493C39.707 32.5493 39.3115 32.3955 39.0332 32.0879C38.7549 31.7949 38.6157 31.4214 38.6157 30.9673C38.6157 30.6304 38.6743 30.2788 38.7915 29.9126C38.9087 29.5317 39.0991 29.0703 39.3628 28.5283ZM66.499 12.9937C66.499 12.6567 66.5576 12.3125 66.6748 11.9609C66.8066 11.5947 66.9971 11.2651 67.2461 10.9722C67.4951 10.6792 67.8027 10.4375 68.1689 10.2471C68.5498 10.0566 68.9966 9.96143 69.5093 9.96143C70.3589 9.96143 70.9521 10.1299 71.2891 10.4668C71.626 10.7891 71.7944 11.1992 71.7944 11.6973C71.7944 11.9756 71.7358 12.2832 71.6187 12.6201C71.5161 12.957 71.355 13.272 71.1353 13.5649C70.9155 13.8433 70.6299 14.0776 70.2783 14.2681C69.9268 14.4585 69.5093 14.5537 69.0259 14.5537C68.1177 14.5537 67.4805 14.4146 67.1143 14.1362C66.748 13.8433 66.543 13.4624 66.499 12.9937ZM64.082 17.9375C64.3311 17.5273 64.6167 17.2344 64.939 17.0586C65.2612 16.8828 65.5908 16.7949 65.9277 16.7949C66.4844 16.7949 66.9604 16.978 67.356 17.3442C67.7661 17.6958 67.9712 18.1499 67.9712 18.7065C67.9565 18.8384 67.9346 18.9702 67.9053 19.1021C67.8906 19.2339 67.8467 19.3657 67.7734 19.4976C67.5684 19.8784 67.3999 20.2007 67.2681 20.4644C67.1362 20.728 67.0117 20.9771 66.8945 21.2114C66.792 21.4312 66.6895 21.6509 66.5869 21.8706C66.4844 22.0903 66.3599 22.354 66.2134 22.6616C66.0376 23.0278 65.8398 23.4307 65.6201 23.8701C65.4004 24.2949 65.188 24.7344 64.9829 25.1885C64.7925 25.6426 64.624 26.0894 64.4775 26.5288C64.3457 26.9683 64.2798 27.3711 64.2798 27.7373C64.2798 28.1328 64.375 28.3965 64.5654 28.5283C64.7705 28.6455 65.0562 28.7041 65.4224 28.7041C65.8325 28.7041 66.2573 28.6162 66.6968 28.4404C67.1509 28.2646 67.605 28.0376 68.0591 27.7593C68.5132 27.481 68.96 27.166 69.3994 26.8145C69.8389 26.4482 70.249 26.082 70.6299 25.7158C71.0254 25.3496 71.3843 24.998 71.7065 24.6611C72.0435 24.3242 72.3218 24.0239 72.5415 23.7603C72.8345 23.4819 73.1274 23.3428 73.4204 23.3428C73.6841 23.3428 73.8965 23.46 74.0576 23.6943C74.2334 23.9287 74.3213 24.229 74.3213 24.5952C74.3213 24.9321 74.2334 25.291 74.0576 25.6719C73.8965 26.0527 73.6255 26.4116 73.2446 26.7485C72.4976 27.5103 71.7358 28.2427 70.9595 28.9458C70.1831 29.6343 69.3848 30.2495 68.5645 30.7915C67.7588 31.3188 66.9458 31.7437 66.1255 32.0659C65.3052 32.3882 64.4775 32.5493 63.6426 32.5493C62.4561 32.5493 61.5186 32.249 60.8301 31.6484C60.1562 31.0332 59.8193 30.0811 59.8193 28.792C59.8193 28.1182 59.9146 27.459 60.105 26.8145C60.2954 26.1699 60.5225 25.5474 60.7861 24.9468C61.0498 24.3315 61.3281 23.7456 61.6211 23.189C61.9141 22.6177 62.1631 22.0757 62.3682 21.563C62.4414 21.3726 62.5659 21.0796 62.7417 20.6841C62.9321 20.2886 63.1299 19.8857 63.335 19.4756C63.5693 18.9922 63.8184 18.4795 64.082 17.9375ZM86.3184 33.1865C86.1133 33.0986 85.8936 32.9375 85.6592 32.7031C85.4395 32.4688 85.2271 32.1904 85.022 31.8682C84.8169 31.5459 84.6484 31.1943 84.5166 30.8135C84.3848 30.418 84.3188 30.0225 84.3188 29.627C84.3188 29.041 84.5239 28.4624 84.9341 27.8911C85.022 27.7886 85.1245 27.6567 85.2417 27.4956C85.3735 27.3345 85.52 27.1807 85.6812 27.0342C85.8569 26.873 86.04 26.7412 86.2305 26.6387C86.4209 26.5361 86.6187 26.4849 86.8237 26.4849C86.9116 26.4849 86.9995 26.4995 87.0874 26.5288C87.1753 26.5435 87.2559 26.5801 87.3291 26.6387C87.4756 26.7266 87.6147 26.9243 87.7466 27.2319C87.8784 27.5396 88.0249 27.8618 88.186 28.1987C88.3472 28.521 88.5303 28.814 88.7354 29.0776C88.9404 29.3413 89.1748 29.4731 89.4385 29.4731C89.9365 29.4731 90.4639 29.2314 91.0205 28.748C91.5771 28.25 92.1411 27.5762 92.7124 26.7266C93.2837 25.877 93.8623 24.8882 94.4482 23.7603C95.0342 22.6177 95.6055 21.4019 96.1621 20.1128C96.7334 18.8237 97.2827 17.4907 97.8101 16.1138C98.3374 14.7368 98.8354 13.3892 99.3042 12.0708C99.7876 10.7524 100.227 9.49268 100.623 8.2915C101.033 7.09033 101.384 6.021 101.677 5.0835C101.985 4.13135 102.234 3.34766 102.424 2.73242C102.615 2.11719 102.732 1.729 102.776 1.56787C102.908 1.11377 103.135 0.78418 103.457 0.579102C103.794 0.374023 104.153 0.271484 104.534 0.271484C105.09 0.271484 105.515 0.447266 105.808 0.798828C106.101 1.13574 106.248 1.7583 106.248 2.6665C106.248 2.81299 106.24 2.9668 106.226 3.12793C106.226 3.28906 106.218 3.45752 106.204 3.6333C106.16 4.05811 106.057 4.65137 105.896 5.41309C105.75 6.16016 105.544 7.02441 105.281 8.00586C105.017 8.9873 104.702 10.064 104.336 11.2358C103.97 12.4077 103.56 13.6235 103.105 14.8833C105.2 13.0962 107.053 11.5361 108.665 10.2031C110.291 8.87012 111.711 7.72754 112.927 6.77539C114.158 5.80859 115.205 5.01758 116.069 4.40234C116.934 3.77246 117.659 3.28174 118.245 2.93018C118.845 2.56396 119.321 2.30762 119.673 2.16113C120.024 2.01465 120.303 1.94141 120.508 1.94141C120.728 1.94141 120.918 2 121.079 2.11719C121.24 2.23438 121.372 2.37354 121.475 2.53467C121.592 2.6958 121.672 2.86426 121.716 3.04004C121.775 3.20117 121.804 3.33301 121.804 3.43555C121.804 3.68457 121.738 3.92627 121.606 4.16064C121.489 4.38037 121.306 4.5708 121.057 4.73193C120.032 5.44971 118.955 6.24072 117.827 7.10498C116.699 7.96924 115.564 8.86279 114.421 9.78564C113.293 10.6938 112.18 11.6094 111.082 12.5322C109.983 13.4551 108.943 14.3267 107.961 15.147C106.995 15.9673 106.108 16.707 105.303 17.3662C104.512 18.0254 103.845 18.5601 103.303 18.9702C104.08 20.0103 104.827 20.999 105.544 21.9365C106.277 22.874 106.973 23.7896 107.632 24.6831C108.306 25.562 108.95 26.4263 109.565 27.2759C110.195 28.1255 110.789 28.9824 111.345 29.8467C111.536 30.1396 111.667 30.4326 111.741 30.7256C111.829 31.0039 111.873 31.2603 111.873 31.4946C111.873 31.8901 111.785 32.2344 111.609 32.5273C111.433 32.8203 111.221 33.062 110.972 33.2524C110.737 33.4429 110.488 33.582 110.225 33.6699C109.976 33.7725 109.763 33.8237 109.587 33.8237C109.104 33.8237 108.643 33.6479 108.203 33.2964C107.778 32.9595 107.412 32.5273 107.104 32C106.65 31.3994 106.27 30.8867 105.962 30.4619C105.669 30.0371 105.398 29.6416 105.149 29.2754C104.9 28.8945 104.651 28.5063 104.402 28.1108C104.167 27.7153 103.867 27.2393 103.501 26.6826C103.149 26.1113 102.71 25.4302 102.183 24.6392C101.655 23.8481 100.996 22.8667 100.205 21.6948C99.4287 23.3062 98.5938 24.8442 97.7002 26.3091C96.8213 27.7739 95.8911 29.063 94.9097 30.1763C93.9282 31.2896 92.9028 32.1685 91.8335 32.813C90.7642 33.4722 89.6655 33.8018 88.5376 33.8018C88.1421 33.8018 87.7539 33.7505 87.373 33.6479C87.0068 33.5454 86.6553 33.3916 86.3184 33.1865ZM126.44 19.0361C126.367 19.0215 126.301 19.0142 126.243 19.0142C126.184 19.0142 126.118 19.0142 126.045 19.0142C125.488 19.0142 124.968 19.124 124.485 19.3438C124.001 19.5635 123.555 19.8564 123.145 20.2227C122.749 20.5742 122.39 20.9771 122.068 21.4312C121.76 21.8853 121.482 22.3394 121.233 22.7935C120.984 23.2329 120.771 23.6577 120.596 24.0679C120.435 24.478 120.31 24.8223 120.222 25.1006C120.735 24.8369 121.262 24.5366 121.804 24.1997C122.361 23.8628 122.881 23.5405 123.364 23.2329C123.848 22.9253 124.265 22.647 124.617 22.3979C124.983 22.1489 125.239 21.9805 125.386 21.8926C126.045 21.4824 126.499 21.1016 126.748 20.75C126.997 20.3838 127.122 20.0688 127.122 19.8052C127.122 19.5854 127.048 19.4097 126.902 19.2778C126.77 19.146 126.616 19.0654 126.44 19.0361ZM127.231 16.0039C128.447 16.0039 129.355 16.2969 129.956 16.8828C130.557 17.4688 130.857 18.2817 130.857 19.3218C130.857 19.937 130.696 20.5815 130.374 21.2554C130.051 21.9292 129.495 22.6177 128.704 23.3208C127.913 24.0093 126.851 24.7197 125.518 25.4521C124.199 26.1699 122.544 26.895 120.552 27.6274C120.625 28.0522 120.852 28.3892 121.233 28.6382C121.614 28.8726 122.119 28.9897 122.749 28.9897C123.423 28.9897 124.141 28.8945 124.902 28.7041C125.679 28.499 126.44 28.2427 127.188 27.9351C127.949 27.6274 128.689 27.2979 129.407 26.9463C130.125 26.5801 130.769 26.2358 131.34 25.9136C131.926 25.5913 132.41 25.313 132.791 25.0786C133.186 24.8442 133.45 24.6978 133.582 24.6392C133.713 24.5513 133.831 24.5 133.933 24.4854C134.05 24.4707 134.153 24.4634 134.241 24.4634C134.417 24.4634 134.563 24.5073 134.68 24.5952C134.797 24.6685 134.893 24.7637 134.966 24.8809C135.054 24.9834 135.112 25.1006 135.142 25.2324C135.171 25.3496 135.186 25.4521 135.186 25.54C135.186 25.6719 135.171 25.833 135.142 26.0234C135.112 26.1992 135.002 26.4043 134.812 26.6387C134.739 26.7119 134.49 26.9097 134.065 27.2319C133.655 27.5542 133.12 27.9351 132.461 28.3745C131.802 28.814 131.033 29.2827 130.154 29.7808C129.29 30.2642 128.367 30.7109 127.385 31.1211C126.418 31.5312 125.408 31.8682 124.353 32.1318C123.298 32.4102 122.258 32.5493 121.233 32.5493C120.354 32.5493 119.57 32.3809 118.882 32.0439C118.208 31.707 117.629 31.2529 117.146 30.6816C116.677 30.1104 116.318 29.4512 116.069 28.7041C115.82 27.957 115.696 27.1733 115.696 26.353C115.696 25.7231 115.82 25.0347 116.069 24.2876C116.318 23.5259 116.677 22.7642 117.146 22.0024C117.615 21.2407 118.186 20.501 118.86 19.7832C119.548 19.0508 120.317 18.4062 121.167 17.8496C122.017 17.293 122.947 16.8462 123.958 16.5093C124.983 16.1724 126.074 16.0039 127.231 16.0039ZM136.35 18.6626C136.643 18.0327 137.009 17.564 137.449 17.2563C137.888 16.9487 138.32 16.7949 138.745 16.7949C139.097 16.7949 139.412 16.9268 139.69 17.1904C139.968 17.4395 140.107 17.813 140.107 18.311C140.107 18.5015 140.085 18.7065 140.042 18.9263C139.998 19.146 139.917 19.3804 139.8 19.6294C140.122 19.2192 140.583 18.8018 141.184 18.377C141.785 17.9375 142.444 17.5493 143.162 17.2124C143.894 16.8608 144.641 16.5752 145.403 16.3555C146.179 16.1357 146.912 16.0259 147.6 16.0259C148.376 16.0259 149.021 16.2163 149.534 16.5972C150.061 16.9634 150.325 17.5933 150.325 18.4868C150.325 19.0142 150.244 19.5635 150.083 20.1348C149.922 20.7061 149.709 21.2773 149.446 21.8486C149.197 22.4199 148.911 22.9839 148.589 23.5405C148.281 24.0825 147.974 24.5952 147.666 25.0786C147.358 25.562 147.073 26.0088 146.809 26.4189C146.56 26.8145 146.362 27.144 146.216 27.4077C146.025 27.6421 145.93 27.9131 145.93 28.2207C145.93 28.3379 145.967 28.4404 146.04 28.5283C146.113 28.6162 146.23 28.6602 146.392 28.6602C146.494 28.6602 146.611 28.6528 146.743 28.6382C146.875 28.6089 147.036 28.5283 147.227 28.3965C148.018 28.1035 148.823 27.7373 149.644 27.2979C150.479 26.8584 151.277 26.397 152.039 25.9136C152.8 25.4155 153.496 24.9248 154.126 24.4414C154.771 23.9434 155.305 23.4966 155.73 23.1011C155.847 22.9985 155.964 22.9253 156.082 22.8813C156.199 22.8374 156.309 22.8154 156.411 22.8154C156.66 22.8154 156.851 22.9106 156.982 23.1011C157.129 23.2915 157.202 23.5332 157.202 23.8262C157.202 24.2803 157.056 24.7856 156.763 25.3423C156.484 25.8989 156.038 26.4189 155.422 26.9023C154.587 27.5029 153.818 28.0522 153.115 28.5503C152.427 29.0483 151.716 29.5171 150.984 29.9565C150.266 30.3813 149.49 30.7842 148.655 31.165C147.834 31.5312 146.868 31.8755 145.754 32.1978C145.374 32.3149 145.022 32.4028 144.7 32.4614C144.392 32.52 144.106 32.5493 143.843 32.5493C143.066 32.5493 142.495 32.3369 142.129 31.9121C141.777 31.4727 141.602 30.8647 141.602 30.0884C141.602 29.9858 141.602 29.8906 141.602 29.8027C141.616 29.7002 141.631 29.5903 141.646 29.4731C141.675 29.019 141.792 28.521 141.997 27.979C142.217 27.437 142.473 26.8804 142.766 26.3091C143.074 25.7378 143.396 25.1738 143.733 24.6172C144.07 24.0459 144.377 23.5112 144.656 23.0132C144.949 22.5005 145.19 22.0464 145.381 21.6509C145.571 21.2554 145.667 20.9331 145.667 20.6841C145.667 20.4644 145.601 20.2812 145.469 20.1348C145.352 19.9736 145.168 19.8931 144.919 19.8931C143.982 19.8931 143.088 20.1714 142.239 20.728C141.404 21.2847 140.62 21.9731 139.888 22.7935C139.155 23.5991 138.481 24.4561 137.866 25.3643C137.251 26.2725 136.709 27.0854 136.24 27.8032C135.947 28.2866 135.676 28.8066 135.427 29.3633C135.193 29.9053 134.944 30.418 134.68 30.9014C134.417 31.3701 134.116 31.7583 133.779 32.0659C133.457 32.3882 133.047 32.5493 132.549 32.5493C132.036 32.5493 131.633 32.3882 131.34 32.0659C131.047 31.7437 130.901 31.3481 130.901 30.8794C130.901 30.6304 131.003 30.2275 131.208 29.6709C131.414 29.1143 131.677 28.4697 132 27.7373C132.322 27.0049 132.681 26.2212 133.076 25.3862C133.486 24.5366 133.889 23.7017 134.285 22.8813C134.695 22.0464 135.083 21.2627 135.449 20.5303C135.815 19.7979 136.116 19.1753 136.35 18.6626ZM162.432 20.0029C161.743 20.0029 161.077 20.1787 160.432 20.5303C159.788 20.8818 159.216 21.3433 158.718 21.9146C158.22 22.4858 157.825 23.1304 157.532 23.8481C157.239 24.5513 157.092 25.2617 157.092 25.9795C157.092 26.2725 157.107 26.5801 157.136 26.9023C157.18 27.21 157.268 27.4956 157.4 27.7593C157.532 28.0229 157.715 28.2427 157.949 28.4185C158.198 28.5942 158.528 28.6821 158.938 28.6821C159.26 28.6821 159.634 28.543 160.059 28.2646C160.498 27.9717 160.945 27.6055 161.399 27.166C161.868 26.7119 162.322 26.2212 162.761 25.6938C163.201 25.1519 163.596 24.6245 163.948 24.1118C164.299 23.5991 164.585 23.1377 164.805 22.7275C165.024 22.3174 165.134 22.0171 165.134 21.8267C165.134 21.5483 165.039 21.2993 164.849 21.0796C164.658 20.8452 164.424 20.6475 164.146 20.4863C163.867 20.3252 163.567 20.208 163.245 20.1348C162.937 20.0469 162.666 20.0029 162.432 20.0029ZM177.659 25.6719C177.395 25.9209 177.043 26.2651 176.604 26.7046C176.165 27.144 175.659 27.6201 175.088 28.1328C174.531 28.6455 173.931 29.1655 173.286 29.6929C172.656 30.2056 172.004 30.6743 171.331 31.0991C170.671 31.5239 170.02 31.8682 169.375 32.1318C168.73 32.4102 168.123 32.5493 167.551 32.5493C167.039 32.5493 166.599 32.4395 166.233 32.2197C165.867 32 165.559 31.7144 165.31 31.3628C165.076 31.0112 164.9 30.6157 164.783 30.1763C164.666 29.7222 164.607 29.2607 164.607 28.792C164.607 28.4844 164.629 28.1841 164.673 27.8911C164.717 27.5835 164.79 27.2979 164.893 27.0342C164.438 27.6494 163.918 28.2866 163.333 28.9458C162.761 29.5903 162.139 30.1836 161.465 30.7256C160.806 31.2529 160.11 31.6851 159.377 32.022C158.66 32.3735 157.927 32.5493 157.18 32.5493C156.799 32.5493 156.353 32.4688 155.84 32.3076C155.342 32.1611 154.866 31.9121 154.412 31.5605C153.958 31.209 153.577 30.7549 153.269 30.1982C152.961 29.6416 152.808 28.9604 152.808 28.1548C152.808 27.5542 152.896 26.8364 153.071 26.0015C153.262 25.1665 153.54 24.3022 153.906 23.4087C154.287 22.5005 154.763 21.6069 155.334 20.728C155.92 19.8491 156.609 19.0654 157.4 18.377C158.191 17.6738 159.092 17.1099 160.103 16.6851C161.113 16.2456 162.241 16.0259 163.486 16.0259C164.131 16.0259 164.695 16.1064 165.178 16.2676C165.662 16.4287 166.072 16.6045 166.409 16.7949C166.79 17.0293 167.126 17.2856 167.419 17.564C167.668 17.4321 167.925 17.3076 168.188 17.1904C168.408 17.0879 168.635 17 168.87 16.9268C169.119 16.8389 169.331 16.7949 169.507 16.7949C170.063 16.7949 170.518 16.9487 170.869 17.2563C171.221 17.564 171.396 17.9009 171.396 18.2671C171.396 18.3696 171.389 18.4502 171.375 18.5088C171.301 18.7871 171.184 19.1387 171.023 19.5635C170.876 19.9883 170.708 20.4644 170.518 20.9917C170.327 21.5044 170.129 22.0464 169.924 22.6177C169.734 23.1743 169.558 23.7236 169.397 24.2656C169.236 24.8076 169.104 25.3203 169.001 25.8037C168.899 26.2725 168.848 26.6753 168.848 27.0122C168.848 27.4517 168.921 27.8179 169.067 28.1108C169.214 28.3892 169.463 28.5283 169.814 28.5283C170.034 28.5283 170.291 28.4624 170.583 28.3306C170.891 28.1841 171.221 27.9937 171.572 27.7593C171.924 27.5249 172.283 27.2612 172.649 26.9683C173.03 26.6606 173.396 26.353 173.748 26.0454C174.568 25.313 175.439 24.478 176.362 23.5405C176.597 23.3501 176.824 23.2549 177.043 23.2549C177.336 23.2549 177.578 23.4014 177.769 23.6943C177.974 23.9727 178.076 24.2876 178.076 24.6392C178.076 25.0493 177.937 25.3936 177.659 25.6719ZM178.889 18.6626C179.182 18.0327 179.548 17.564 179.988 17.2563C180.427 16.9487 180.859 16.7949 181.284 16.7949C181.636 16.7949 181.951 16.9268 182.229 17.1904C182.507 17.4395 182.646 17.813 182.646 18.311C182.646 18.5015 182.625 18.7065 182.581 18.9263C182.537 19.146 182.456 19.3804 182.339 19.6294C182.661 19.2192 183.123 18.8018 183.723 18.377C184.324 17.9375 184.983 17.5493 185.701 17.2124C186.433 16.8608 187.18 16.5752 187.942 16.3555C188.718 16.1357 189.451 16.0259 190.139 16.0259C190.916 16.0259 191.56 16.2163 192.073 16.5972C192.6 16.9634 192.864 17.5933 192.864 18.4868C192.864 19.0142 192.783 19.5635 192.622 20.1348C192.461 20.7061 192.249 21.2773 191.985 21.8486C191.736 22.4199 191.45 22.9839 191.128 23.5405C190.82 24.0825 190.513 24.5952 190.205 25.0786C189.897 25.562 189.612 26.0088 189.348 26.4189C189.099 26.8145 188.901 27.144 188.755 27.4077C188.564 27.6421 188.469 27.9131 188.469 28.2207C188.469 28.3379 188.506 28.4404 188.579 28.5283C188.652 28.6162 188.77 28.6602 188.931 28.6602C189.033 28.6602 189.15 28.6528 189.282 28.6382C189.414 28.6089 189.575 28.5283 189.766 28.3965C190.557 28.1035 191.362 27.7373 192.183 27.2979C193.018 26.8584 193.816 26.397 194.578 25.9136C195.339 25.4155 196.035 24.9248 196.665 24.4414C197.31 23.9434 197.844 23.4966 198.269 23.1011C198.386 22.9985 198.503 22.9253 198.621 22.8813C198.738 22.8374 198.848 22.8154 198.95 22.8154C199.199 22.8154 199.39 22.9106 199.521 23.1011C199.668 23.2915 199.741 23.5332 199.741 23.8262C199.741 24.2803 199.595 24.7856 199.302 25.3423C199.023 25.8989 198.577 26.4189 197.961 26.9023C197.126 27.5029 196.357 28.0522 195.654 28.5503C194.966 29.0483 194.255 29.5171 193.523 29.9565C192.805 30.3813 192.029 30.7842 191.194 31.165C190.374 31.5312 189.407 31.8755 188.293 32.1978C187.913 32.3149 187.561 32.4028 187.239 32.4614C186.931 32.52 186.646 32.5493 186.382 32.5493C185.605 32.5493 185.034 32.3369 184.668 31.9121C184.316 31.4727 184.141 30.8647 184.141 30.0884C184.141 29.9858 184.141 29.8906 184.141 29.8027C184.155 29.7002 184.17 29.5903 184.185 29.4731C184.214 29.019 184.331 28.521 184.536 27.979C184.756 27.437 185.012 26.8804 185.305 26.3091C185.613 25.7378 185.935 25.1738 186.272 24.6172C186.609 24.0459 186.917 23.5112 187.195 23.0132C187.488 22.5005 187.729 22.0464 187.92 21.6509C188.11 21.2554 188.206 20.9331 188.206 20.6841C188.206 20.4644 188.14 20.2812 188.008 20.1348C187.891 19.9736 187.708 19.8931 187.458 19.8931C186.521 19.8931 185.627 20.1714 184.778 20.728C183.943 21.2847 183.159 21.9731 182.427 22.7935C181.694 23.5991 181.021 24.4561 180.405 25.3643C179.79 26.2725 179.248 27.0854 178.779 27.8032C178.486 28.2866 178.215 28.8066 177.966 29.3633C177.732 29.9053 177.483 30.418 177.219 30.9014C176.956 31.3701 176.655 31.7583 176.318 32.0659C175.996 32.3882 175.586 32.5493 175.088 32.5493C174.575 32.5493 174.172 32.3882 173.879 32.0659C173.586 31.7437 173.44 31.3481 173.44 30.8794C173.44 30.6304 173.542 30.2275 173.748 29.6709C173.953 29.1143 174.216 28.4697 174.539 27.7373C174.861 27.0049 175.22 26.2212 175.615 25.3862C176.025 24.5366 176.428 23.7017 176.824 22.8813C177.234 22.0464 177.622 21.2627 177.988 20.5303C178.354 19.7979 178.655 19.1753 178.889 18.6626ZM201.587 12.9937C201.587 12.6567 201.646 12.3125 201.763 11.9609C201.895 11.5947 202.085 11.2651 202.334 10.9722C202.583 10.6792 202.891 10.4375 203.257 10.2471C203.638 10.0566 204.084 9.96143 204.597 9.96143C205.447 9.96143 206.04 10.1299 206.377 10.4668C206.714 10.7891 206.882 11.1992 206.882 11.6973C206.882 11.9756 206.824 12.2832 206.707 12.6201C206.604 12.957 206.443 13.272 206.223 13.5649C206.003 13.8433 205.718 14.0776 205.366 14.2681C205.015 14.4585 204.597 14.5537 204.114 14.5537C203.206 14.5537 202.568 14.4146 202.202 14.1362C201.836 13.8433 201.631 13.4624 201.587 12.9937ZM199.17 17.9375C199.419 17.5273 199.705 17.2344 200.027 17.0586C200.349 16.8828 200.679 16.7949 201.016 16.7949C201.572 16.7949 202.048 16.978 202.444 17.3442C202.854 17.6958 203.059 18.1499 203.059 18.7065C203.044 18.8384 203.022 18.9702 202.993 19.1021C202.979 19.2339 202.935 19.3657 202.861 19.4976C202.656 19.8784 202.488 20.2007 202.356 20.4644C202.224 20.728 202.1 20.9771 201.982 21.2114C201.88 21.4312 201.777 21.6509 201.675 21.8706C201.572 22.0903 201.448 22.354 201.301 22.6616C201.125 23.0278 200.928 23.4307 200.708 23.8701C200.488 24.2949 200.276 24.7344 200.071 25.1885C199.88 25.6426 199.712 26.0894 199.565 26.5288C199.434 26.9683 199.368 27.3711 199.368 27.7373C199.368 28.1328 199.463 28.3965 199.653 28.5283C199.858 28.6455 200.144 28.7041 200.51 28.7041C200.92 28.7041 201.345 28.6162 201.785 28.4404C202.239 28.2646 202.693 28.0376 203.147 27.7593C203.601 27.481 204.048 27.166 204.487 26.8145C204.927 26.4482 205.337 26.082 205.718 25.7158C206.113 25.3496 206.472 24.998 206.794 24.6611C207.131 24.3242 207.41 24.0239 207.629 23.7603C207.922 23.4819 208.215 23.3428 208.508 23.3428C208.772 23.3428 208.984 23.46 209.146 23.6943C209.321 23.9287 209.409 24.229 209.409 24.5952C209.409 24.9321 209.321 25.291 209.146 25.6719C208.984 26.0527 208.713 26.4116 208.333 26.7485C207.585 27.5103 206.824 28.2427 206.047 28.9458C205.271 29.6343 204.473 30.2495 203.652 30.7915C202.847 31.3188 202.034 31.7437 201.213 32.0659C200.393 32.3882 199.565 32.5493 198.73 32.5493C197.544 32.5493 196.606 32.249 195.918 31.6484C195.244 31.0332 194.907 30.0811 194.907 28.792C194.907 28.1182 195.002 27.459 195.193 26.8145C195.383 26.1699 195.61 25.5474 195.874 24.9468C196.138 24.3315 196.416 23.7456 196.709 23.189C197.002 22.6177 197.251 22.0757 197.456 21.563C197.529 21.3726 197.654 21.0796 197.83 20.6841C198.02 20.2886 198.218 19.8857 198.423 19.4756C198.657 18.9922 198.906 18.4795 199.17 17.9375Z" fill="#FED136"/>
</svg>
